<svg width="32" height="32" viewBox="0 0 32 32" fill="none" xmlns="http://www.w3.org/2000/svg">
<path d="M0 6C0 2.68629 2.68629 0 6 0H26C29.3137 0 32 2.68629 32 6V26C32 29.3137 29.3137 32 26 32H6C2.68629 32 0 29.3137 0 26V6Z" fill="#48382E"/>
<path d="M19.75 22.25C20.3229 22.7969 21.013 23.0703 21.8203 23.0703C22.6276 23.0703 23.3177 22.7969 23.8906 22.25C24.4635 21.6771 24.75 20.987 24.75 20.1797C24.75 19.3724 24.4635 18.6823 23.8906 18.1094C23.3177 17.5365 22.6276 17.25 21.8203 17.25C21.013 17.25 20.3229 17.5365 19.75 18.1094C19.2031 18.6823 18.9297 19.3724 18.9297 20.1797C18.9297 20.987 19.2031 21.6771 19.75 22.25ZM18.8516 17.2109C19.6589 16.4036 20.6484 16 21.8203 16C22.9922 16 23.9818 16.4036 24.7891 17.2109C25.5964 18.0182 26 19.0078 26 20.1797C26 21.3516 25.5964 22.3411 24.7891 23.1484C23.9818 23.9297 22.9922 24.3203 21.8203 24.3203C20.6484 24.3203 19.6589 23.9297 18.8516 23.1484C18.0703 22.3411 17.6797 21.3516 17.6797 20.1797C17.6797 19.0078 18.0703 18.0182 18.8516 17.2109ZM14.9844 14.75L16.8203 16.6641V21.8203H15.1797V17.6797L12.4844 15.3359C12.1719 15.1276 12.0156 14.737 12.0156 14.1641C12.0156 13.6953 12.1719 13.3047 12.4844 12.9922L14.8281 10.6484C15.0365 10.3359 15.4271 10.1797 16 10.1797C16.4948 10.1797 16.9375 10.3359 17.3281 10.6484L18.9297 12.25C19.763 13.0833 20.7526 13.5 21.8984 13.5V15.1797C20.2578 15.1797 18.8516 14.5938 17.6797 13.4219L17.0156 12.7578L14.9844 14.75ZM8.10938 22.25C8.68229 22.7969 9.3724 23.0703 10.1797 23.0703C10.987 23.0703 11.6641 22.7969 12.2109 22.25C12.7839 21.6771 13.0703 20.987 13.0703 20.1797C13.0703 19.3724 12.7839 18.6823 12.2109 18.1094C11.6641 17.5365 10.987 17.25 10.1797 17.25C9.3724 17.25 8.68229 17.5365 8.10938 18.1094C7.53646 18.6823 7.25 19.3724 7.25 20.1797C7.25 20.987 7.53646 21.6771 8.10938 22.25ZM7.21094 17.2109C8.01823 16.4036 9.00781 16 10.1797 16C11.3516 16 12.3281 16.4036 13.1094 17.2109C13.9167 18.0182 14.3203 19.0078 14.3203 20.1797C14.3203 21.3516 13.9167 22.3411 13.1094 23.1484C12.3281 23.9297 11.3516 24.3203 10.1797 24.3203C9.00781 24.3203 8.01823 23.9297 7.21094 23.1484C6.40365 22.3411 6 21.3516 6 20.1797C6 19.0078 6.40365 18.0182 7.21094 17.2109ZM20.0625 10.1016C19.75 10.4141 19.3724 10.5703 18.9297 10.5703C18.487 10.5703 18.0964 10.4141 17.7578 10.1016C17.4193 9.76302 17.25 9.3724 17.25 8.92969C17.25 8.48698 17.4193 8.09635 17.7578 7.75781C18.0964 7.41927 18.487 7.25 18.9297 7.25C19.3724 7.25 19.75 7.41927 20.0625 7.75781C20.401 8.09635 20.5703 8.48698 20.5703 8.92969C20.5703 9.3724 20.401 9.76302 20.0625 10.1016Z" fill="#FB923C"/>
</svg>
