<svg width="32" height="32" viewBox="0 0 32 32" fill="none" xmlns="http://www.w3.org/2000/svg">
<path d="M0 6C0 2.68629 2.68629 0 6 0H26C29.3137 0 32 2.68629 32 6V26C32 29.3137 29.3137 32 26 32H6C2.68629 32 0 29.3137 0 26V6Z" fill="#1F2B34"/>
<path d="M18.8906 14.0078C17.7969 14.6068 16.8333 15.349 16 16.2344C15.1667 15.349 14.2031 14.6068 13.1094 14.0078C13.1875 12.9922 13.513 11.8724 14.0859 10.6484C14.6589 9.39844 15.3099 8.40885 16.0391 7.67969C17.7839 9.42448 18.7344 11.5339 18.8906 14.0078ZM7.67969 14.3203C9.45052 14.3203 11.0651 14.75 12.5234 15.6094C13.9818 16.4688 15.1406 17.5625 16 18.8906C16.8594 17.5625 18.0182 16.4688 19.4766 15.6094C20.9349 14.75 22.5495 14.3203 24.3203 14.3203C24.3203 16.5078 23.6953 18.474 22.4453 20.2188C21.2214 21.9635 19.6198 23.1875 17.6406 23.8906C17.1979 24.0469 16.651 24.1901 16 24.3203C15.4531 24.2422 14.9062 24.099 14.3594 23.8906C12.3802 23.1875 10.7656 21.9635 9.51562 20.2188C8.29167 18.474 7.67969 16.5078 7.67969 14.3203Z" fill="#9CA3AF"/>
</svg>
