<svg width="32" height="32" viewBox="0 0 32 32" fill="none" xmlns="http://www.w3.org/2000/svg">
<path d="M0 6C0 2.68629 2.68629 0 6 0H26C29.3137 0 32 2.68629 32 6V26C32 29.3137 29.3137 32 26 32H6C2.68629 32 0 29.3137 0 26V6Z" fill="#1B433A"/>
<path d="M14.2422 22.1328L8.42188 21L8.73438 19.3203L12.8359 20.1406L14.1641 13.3828L12.6406 13.9688V16.8203H11V12.9141L15.3359 11.0781C15.4141 11.0781 15.5182 11.0651 15.6484 11.0391C15.8047 11.013 15.9219 11 16 11C16.5469 11 17.0156 11.2734 17.4062 11.8203L18.2266 13.1484C18.9818 14.4766 20.1797 15.1406 21.8203 15.1406V16.8203C19.9714 16.8203 18.4479 16.1302 17.25 14.75L16.7422 17.25L18.5 18.8906V25.1406H16.8203V20.1406L15.0625 18.5L14.2422 22.1328ZM18.3828 10.0625C18.0703 10.401 17.6927 10.5703 17.25 10.5703C16.8073 10.5703 16.4167 10.401 16.0781 10.0625C15.7396 9.72396 15.5703 9.33333 15.5703 8.89062C15.5703 8.44792 15.7396 8.07031 16.0781 7.75781C16.4167 7.41927 16.8073 7.25 17.25 7.25C17.6927 7.25 18.0703 7.41927 18.3828 7.75781C18.7214 8.07031 18.8906 8.44792 18.8906 8.89062C18.8906 9.33333 18.7214 9.72396 18.3828 10.0625Z" fill="#44CA76"/>
</svg>
