<svg width="32" height="32" viewBox="0 0 32 32" fill="none" xmlns="http://www.w3.org/2000/svg">
<path d="M0 6C0 2.68629 2.68629 0 6 0H26C29.3137 0 32 2.68629 32 6V26C32 29.3137 29.3137 32 26 32H6C2.68629 32 0 29.3137 0 26V6Z" fill="#223B5B"/>
<path d="M18.2656 12.0547C17.875 11.638 17.6797 11.1432 17.6797 10.5703C17.6797 9.9974 17.875 9.51562 18.2656 9.125C18.6823 8.70833 19.1771 8.5 19.75 8.5C20.3229 8.5 20.8047 8.70833 21.1953 9.125C21.612 9.51562 21.8203 9.9974 21.8203 10.5703C21.8203 11.1432 21.612 11.638 21.1953 12.0547C20.8047 12.4714 20.3229 12.6797 19.75 12.6797C19.1771 12.6797 18.6823 12.4714 18.2656 12.0547ZM13.2266 16C12.9141 16 12.5885 15.8958 12.25 15.6875C12.1458 15.6094 11.9375 15.5052 11.625 15.375L14.3203 12.6797L13.5 11.8203C12.6667 10.987 11.5599 10.5703 10.1797 10.5703V8.5C11.2474 8.5 12.1198 8.63021 12.7969 8.89062C13.474 9.125 14.125 9.55469 14.75 10.1797L20.1016 15.4922C19.9453 15.5964 19.8281 15.6615 19.75 15.6875C19.4115 15.8958 19.0859 16 18.7734 16C18.487 16 18.1745 15.8958 17.8359 15.6875C17.263 15.349 16.651 15.1797 16 15.1797C15.349 15.1797 14.737 15.349 14.1641 15.6875C13.8255 15.8958 13.513 16 13.2266 16ZM24.3203 19.75C23.7214 19.75 23.1224 19.5677 22.5234 19.2031C22.237 19.0208 21.9115 18.9297 21.5469 18.9297C21.2083 18.9297 20.8958 19.0208 20.6094 19.2031C20.0104 19.5677 19.3984 19.75 18.7734 19.75C18.1745 19.75 17.5755 19.5677 16.9766 19.2031C16.6901 19.0208 16.3646 18.9297 16 18.9297C15.6615 18.9297 15.349 19.0208 15.0625 19.2031C14.4635 19.5677 13.8516 19.75 13.2266 19.75C12.6276 19.75 12.0286 19.5677 11.4297 19.2031C11.1432 19.0208 10.8177 18.9297 10.4531 18.9297C10.1146 18.9297 9.80208 19.0208 9.51562 19.2031C8.91667 19.5677 8.30469 19.75 7.67969 19.75V18.0703C8.01823 18.0703 8.33073 17.9792 8.61719 17.7969C9.21615 17.4323 9.82812 17.25 10.4531 17.25C11.0521 17.25 11.651 17.4323 12.25 17.7969C12.5365 17.9792 12.862 18.0703 13.2266 18.0703C13.5651 18.0703 13.8776 17.9792 14.1641 17.7969C14.763 17.4323 15.375 17.25 16 17.25C16.599 17.25 17.1979 17.4323 17.7969 17.7969C18.0833 17.9792 18.4089 18.0703 18.7734 18.0703C19.112 18.0703 19.4245 17.9792 19.7109 17.7969C20.3099 17.4323 20.9219 17.25 21.5469 17.25C22.1458 17.25 22.7448 17.4323 23.3438 17.7969C23.6302 17.9792 23.9557 18.0703 24.3203 18.0703V19.75ZM24.3203 23.5C23.7214 23.5 23.1224 23.3177 22.5234 22.9531C22.237 22.7708 21.9115 22.6797 21.5469 22.6797C21.2083 22.6797 20.8958 22.7708 20.6094 22.9531C20.0104 23.3177 19.3984 23.5 18.7734 23.5C18.1745 23.5 17.5755 23.3177 16.9766 22.9531C16.6901 22.7708 16.3646 22.6797 16 22.6797C15.6615 22.6797 15.349 22.7708 15.0625 22.9531C14.4635 23.3177 13.8516 23.5 13.2266 23.5C12.6016 23.5 11.9896 23.3177 11.3906 22.9531C11.1042 22.7708 10.7917 22.6797 10.4531 22.6797C10.0885 22.6797 9.76302 22.7708 9.47656 22.9531C8.8776 23.3177 8.27865 23.5 7.67969 23.5V21.8203C8.01823 21.8203 8.33073 21.7292 8.61719 21.5469C9.21615 21.1823 9.82812 21 10.4531 21C11.0521 21 11.651 21.1823 12.25 21.5469C12.5365 21.7292 12.862 21.8203 13.2266 21.8203C13.5651 21.8203 13.8776 21.7292 14.1641 21.5469C14.763 21.1823 15.375 21 16 21C16.625 21 17.237 21.1823 17.8359 21.5469C18.1224 21.7292 18.4349 21.8203 18.7734 21.8203C19.138 21.8203 19.4635 21.7292 19.75 21.5469C20.349 21.1823 20.9479 21 21.5469 21C22.1719 21 22.7839 21.1823 23.3828 21.5469C23.6693 21.7292 23.9818 21.8203 24.3203 21.8203V23.5Z" fill="#60A5FA"/>
</svg>
