<svg width="50" height="50" viewBox="0 0 50 50" fill="none" xmlns="http://www.w3.org/2000/svg">
<g clip-path="url(#clip0_23_224)">
<rect width="50" height="50" fill="black"/>
<path d="M26.9003 12.8319C30.5746 12.8319 33.6496 14.1004 36.1063 16.6376L36.3407 16.8768C38.7206 19.3686 39.9109 22.4023 39.911 25.9628C39.911 29.6383 38.6425 32.7528 36.1063 35.2889C33.6485 37.7467 30.5733 38.9735 26.9003 38.9735C23.2275 38.9734 20.1147 37.7467 17.578 35.2919L17.5741 35.2889V35.288C15.0384 32.7519 13.7694 29.638 13.7694 25.9628C13.7695 22.2873 15.0389 19.1737 17.5751 16.6376C20.1112 14.1014 23.2248 12.832 26.9003 12.8319ZM26.9003 17.204C24.4844 17.2041 22.4259 18.0582 20.7108 19.7733C18.9957 21.4884 18.1416 23.5469 18.1415 25.9628C18.1415 28.3768 18.9946 30.434 20.7069 32.1483L21.0321 32.4452C22.6798 33.8834 24.6317 34.6014 26.9003 34.6014C29.3199 34.6014 31.3372 33.7846 32.9696 32.1522C34.6847 30.4371 35.5389 28.3787 35.5389 25.9628C35.5389 23.5469 34.6847 21.4884 32.9696 19.7733L32.6552 19.4589C31.0789 17.9548 29.1652 17.204 26.9003 17.204Z" fill="white" stroke="white" stroke-width="0.523438"/>
<path d="M26.5938 15.6062C25.5576 15.6062 24.5215 17.2115 23.4854 16.2344C22.9898 15.7458 22.4267 15.5016 21.796 15.5016C21.2104 15.5016 20.6698 15.7458 20.1743 16.2344C19.1381 17.2115 18.0795 17.7 16.9983 17.7C15.9622 17.7 14.9261 17.2115 13.8899 16.2344C13.3944 15.7458 12.8313 15.5016 12.2006 15.5016C11.6149 15.5016 11.0744 15.7458 10.5788 16.2344C9.54269 17.2115 8.48404 17.7 7.40286 17.7C6.36673 17.7 5.3306 17.2115 4.29447 16.2344C3.79893 15.7458 3.23582 15.5016 2.60513 15.5016C2.0195 15.5016 1.47891 15.7458 0.98337 16.2344C-0.0527582 17.2115 -1.11141 17.7 -2.19259 17.7V13.1984C-1.60695 13.1984 -1.06636 12.9542 -0.570823 12.4656C0.465305 11.4885 1.52396 11 2.60513 11C3.64126 11 4.67739 11.4885 5.71352 12.4656C6.20906 12.9542 6.77217 13.1984 7.40286 13.1984C7.9885 13.1984 8.52909 12.9542 9.02463 12.4656C10.0608 11.4885 11.1194 11 12.2006 11C13.2367 11 14.2728 11.4885 15.309 12.4656C15.8045 12.9542 16.3676 13.1984 16.9983 13.1984C17.5839 13.1984 18.1245 12.9542 18.6201 12.4656C19.6562 11.4885 20.7148 11 21.796 11C22.8322 11 23.8683 11.4885 24.9044 12.4656C25.4 12.9542 25.9631 13.1984 26.5938 13.1984V15.6062ZM18.0914 27.75C17.0553 27.75 16.0191 27.2615 14.983 26.2844C14.4875 25.7958 15.6193 25.5516 14.9886 25.5516C14.403 25.5516 13.8624 25.7958 13.3668 26.2844C12.3307 27.2615 11.2721 27.75 10.1909 27.75C9.15477 27.75 8.11864 27.2615 7.08251 26.2844C6.58697 25.7958 6.02386 25.5516 5.39317 25.5516C4.80753 25.5516 4.26694 25.7958 3.7714 26.2844C2.73528 27.2615 1.67662 27.75 0.595447 27.75C-0.48573 27.75 -1.54438 27.2615 -2.58051 26.2844C-3.07605 25.7958 -3.61664 25.5516 -4.20228 25.5516C-4.83296 25.5516 -5.39608 25.7958 -5.89162 26.2844C-6.92774 27.2615 -7.96387 27.75 -9 27.75V23.2484C-8.41436 23.2484 -7.87377 23.0042 -7.37823 22.5156C-6.34211 21.5385 -5.28345 21.05 -4.20228 21.05C-3.16615 21.05 -2.13002 21.5385 -1.09389 22.5156C-0.598352 23.0042 -0.0352402 23.2484 0.595447 23.2484C1.18108 23.2484 1.72167 23.0042 2.21721 22.5156C3.25334 21.5385 4.31199 21.05 5.39317 21.05C6.47435 21.05 7.533 21.5385 8.56913 22.5156C9.06467 23.0042 9.60526 23.2484 10.1909 23.2484C10.8216 23.2484 11.3847 23.0042 11.8802 22.5156C12.9164 21.5385 13.9525 21.05 14.9886 21.05C16.0698 21.05 15.4335 21.5385 16.4696 22.5156C16.9652 23.0042 17.5058 23.2484 18.0914 23.2484V27.75Z" fill="white"/>
<path d="M36.3707 23.5625C36.3707 22.4062 37.0477 21.4688 37.8828 21.4688H54.3275C55.1626 21.4688 55.8397 22.4062 55.8397 23.5625C55.8397 24.7188 55.1626 25.6562 54.3275 25.6562H37.8828C37.0477 25.6562 36.3707 24.7188 36.3707 23.5625Z" fill="white"/>
<path d="M36.8297 29.8438C36.8297 28.6874 37.5068 27.75 38.3419 27.75H47.1649C48 27.75 48.677 28.6874 48.677 29.8438C48.677 31.0001 48 31.9375 47.1649 31.9375H38.3419C37.5068 31.9375 36.8297 31.0001 36.8297 29.8438Z" fill="white"/>
<path d="M30.7811 36.125C30.7811 34.9687 31.4581 34.0312 32.2933 34.0312H50.4391C51.2743 34.0312 51.9513 34.9687 51.9513 36.125C51.9513 37.2813 51.2743 38.2188 50.4391 38.2188H32.2933C31.4581 38.2188 30.7811 37.2813 30.7811 36.125Z" fill="white"/>
</g>
<defs>
<clipPath id="clip0_23_224">
<rect width="50" height="50" rx="5" fill="white"/>
</clipPath>
</defs>
</svg>
